<?xml version="1.0" encoding="utf-8"?>
<!-- Generator: Adobe Illustrator 19.1.0, SVG Export Plug-In . SVG Version: 6.00 Build 0)  -->
<svg version="1.1" id="Layer_1" xmlns="http://www.w3.org/2000/svg" xmlns:xlink="http://www.w3.org/1999/xlink" x="0px" y="0px"
	 viewBox="0 0 960 560" style="enable-background:new 0 0 960 560;" xml:space="preserve">
<style type="text/css">
	.st0{opacity:0.45;}
	.st1{fill:none;stroke:#E2A2B4;stroke-miterlimit:10;}
</style>
<g class="st0">
	<line class="st1" x1="-43.8" y1="169.6" x2="1015.7" y2="169.6"/>
	<line class="st1" x1="-43.8" y1="183.3" x2="1015.7" y2="183.3"/>
	<line class="st1" x1="14.2" y1="-27.9" x2="14.2" y2="580.2"/>
	<line class="st1" x1="0.4" y1="-27.9" x2="0.4" y2="580.2"/>
	<line class="st1" x1="-43.8" y1="252.2" x2="1015.7" y2="252.2"/>
	<line class="st1" x1="-43.8" y1="321.1" x2="1015.7" y2="321.1"/>
	<line class="st1" x1="-52.9" y1="197.1" x2="1006.6" y2="197.1"/>
	<line class="st1" x1="-52.9" y1="210.9" x2="1006.6" y2="210.9"/>
	<line class="st1" x1="-52.9" y1="224.7" x2="997.5" y2="224.7"/>
	<line class="st1" x1="-52.9" y1="238.5" x2="997.5" y2="238.5"/>
	<line class="st1" x1="-52.9" y1="266" x2="1006.6" y2="266"/>
	<line class="st1" x1="-52.9" y1="279.8" x2="1006.6" y2="279.8"/>
	<line class="st1" x1="-52.9" y1="293.6" x2="997.5" y2="293.6"/>
	<line class="st1" x1="-52.9" y1="307.4" x2="997.5" y2="307.4"/>
	<line class="st1" x1="-34.7" y1="390" x2="1024.8" y2="390"/>
	<line class="st1" x1="-43.8" y1="334.9" x2="1015.7" y2="334.9"/>
	<line class="st1" x1="-43.8" y1="348.7" x2="1015.7" y2="348.7"/>
	<line class="st1" x1="-52.9" y1="362.5" x2="1006.6" y2="362.5"/>
	<line class="st1" x1="-52.9" y1="376.3" x2="1006.6" y2="376.3"/>
	<line class="st1" x1="-43.8" y1="114.4" x2="1015.7" y2="114.4"/>
	<line class="st1" x1="-43.8" y1="128.2" x2="1015.7" y2="128.2"/>
	<line class="st1" x1="-52.9" y1="142" x2="1006.6" y2="142"/>
	<line class="st1" x1="-52.9" y1="155.8" x2="1006.6" y2="155.8"/>
	<line class="st1" x1="41.7" y1="-27.9" x2="41.7" y2="584.3"/>
	<line class="st1" x1="28" y1="-27.9" x2="28" y2="584.3"/>
	<line class="st1" x1="69.3" y1="-27.9" x2="69.3" y2="584.3"/>
	<line class="st1" x1="55.5" y1="-27.9" x2="55.5" y2="584.3"/>
	<line class="st1" x1="96.8" y1="-27.9" x2="96.8" y2="584.3"/>
	<line class="st1" x1="83.1" y1="-27.9" x2="83.1" y2="584.3"/>
	<line class="st1" x1="124.4" y1="-27.9" x2="124.4" y2="584.3"/>
	<line class="st1" x1="110.6" y1="-27.9" x2="110.6" y2="584.3"/>
	<line class="st1" x1="152" y1="-27.9" x2="152" y2="584.3"/>
	<line class="st1" x1="138.2" y1="-27.9" x2="138.2" y2="584.3"/>
	<line class="st1" x1="179.5" y1="-27.9" x2="179.5" y2="584.3"/>
	<line class="st1" x1="165.7" y1="-27.9" x2="165.7" y2="584.3"/>
	<line class="st1" x1="-13.4" y1="-27.9" x2="-13.4" y2="571.1"/>
	<line class="st1" x1="220.9" y1="-32.3" x2="220.9" y2="573.7"/>
	<line class="st1" x1="207.1" y1="-32.3" x2="207.1" y2="573.7"/>
	<line class="st1" x1="248.4" y1="-32.3" x2="248.4" y2="597.8"/>
	<line class="st1" x1="234.6" y1="-32.3" x2="234.6" y2="577.7"/>
	<line class="st1" x1="276" y1="-32.3" x2="276" y2="597.8"/>
	<line class="st1" x1="262.2" y1="-32.3" x2="262.2" y2="597.8"/>
	<line class="st1" x1="303.5" y1="-32.3" x2="303.5" y2="597.8"/>
	<line class="st1" x1="289.8" y1="-32.3" x2="289.8" y2="597.8"/>
	<line class="st1" x1="331.1" y1="-32.3" x2="331.1" y2="597.8"/>
	<line class="st1" x1="317.3" y1="-32.3" x2="317.3" y2="597.8"/>
	<line class="st1" x1="358.7" y1="-32.3" x2="358.7" y2="597.8"/>
	<line class="st1" x1="344.9" y1="-32.3" x2="344.9" y2="597.8"/>
	<line class="st1" x1="386.2" y1="-32.3" x2="386.2" y2="597.8"/>
	<line class="st1" x1="372.4" y1="-32.3" x2="372.4" y2="597.8"/>
	<line class="st1" x1="193.3" y1="-32.3" x2="193.3" y2="573.4"/>
	<line class="st1" x1="-44" y1="403.8" x2="1015.5" y2="403.8"/>
	<line class="st1" x1="-44" y1="417.6" x2="1015.5" y2="417.6"/>
	<line class="st1" x1="441.3" y1="-41.4" x2="441.3" y2="586.8"/>
	<line class="st1" x1="427.6" y1="-41.4" x2="427.6" y2="586.8"/>
	<line class="st1" x1="468.9" y1="-41.4" x2="468.9" y2="591"/>
	<line class="st1" x1="455.1" y1="-41.4" x2="455.1" y2="591"/>
	<line class="st1" x1="496.5" y1="-41.4" x2="496.5" y2="591"/>
	<line class="st1" x1="482.7" y1="-41.4" x2="482.7" y2="591"/>
	<line class="st1" x1="524" y1="-41.4" x2="524" y2="591"/>
	<line class="st1" x1="510.2" y1="-41.4" x2="510.2" y2="591"/>
	<line class="st1" x1="551.6" y1="-41.4" x2="551.6" y2="591"/>
	<line class="st1" x1="537.8" y1="-41.4" x2="537.8" y2="591"/>
	<line class="st1" x1="579.1" y1="-41.4" x2="579.1" y2="591"/>
	<line class="st1" x1="565.4" y1="-41.4" x2="565.4" y2="591"/>
	<line class="st1" x1="606.7" y1="-41.4" x2="606.7" y2="591"/>
	<line class="st1" x1="592.9" y1="-41.4" x2="592.9" y2="591"/>
	<line class="st1" x1="413.8" y1="-41.4" x2="413.8" y2="593.6"/>
	<line class="st1" x1="634.3" y1="-45.9" x2="634.3" y2="593.4"/>
	<line class="st1" x1="620.5" y1="-45.9" x2="620.5" y2="581.6"/>
	<line class="st1" x1="400" y1="-34.6" x2="400" y2="593.6"/>
	<line class="st1" x1="662.2" y1="-41.5" x2="662.2" y2="586.8"/>
	<line class="st1" x1="648.4" y1="-41.5" x2="648.4" y2="586.8"/>
	<line class="st1" x1="689.7" y1="-41.5" x2="689.7" y2="586.8"/>
	<line class="st1" x1="676" y1="-41.5" x2="676" y2="586.8"/>
	<line class="st1" x1="717.3" y1="-41.5" x2="717.3" y2="586.8"/>
	<line class="st1" x1="703.5" y1="-41.5" x2="703.5" y2="586.8"/>
	<line class="st1" x1="731.1" y1="-41.5" x2="731.1" y2="586.8"/>
	<line class="st1" x1="-25.9" y1="3.9" x2="1033.6" y2="3.9"/>
	<line class="st1" x1="-25.9" y1="17.7" x2="1033.6" y2="17.7"/>
	<line class="st1" x1="-25.9" y1="86.6" x2="1033.6" y2="86.6"/>
	<line class="st1" x1="-35" y1="31.5" x2="1024.5" y2="31.5"/>
	<line class="st1" x1="-35" y1="45.3" x2="1024.5" y2="45.3"/>
	<line class="st1" x1="-44.1" y1="59" x2="1015.4" y2="59"/>
	<line class="st1" x1="-44.1" y1="72.8" x2="1015.4" y2="72.8"/>
	<line class="st1" x1="-35" y1="100.4" x2="1024.5" y2="100.4"/>
	<line class="st1" x1="-35" y1="-9.8" x2="1024.5" y2="-9.8"/>
	<line class="st1" x1="-26.2" y1="487.2" x2="1014.5" y2="487.2"/>
	<line class="st1" x1="-26.2" y1="556.1" x2="1014.5" y2="556.1"/>
	<line class="st1" x1="-35.1" y1="432.1" x2="1005.5" y2="432.1"/>
	<line class="st1" x1="-35.1" y1="445.9" x2="1005.5" y2="445.9"/>
	<line class="st1" x1="-44.1" y1="459.7" x2="996.6" y2="459.7"/>
	<line class="st1" x1="-44.1" y1="473.5" x2="996.6" y2="473.5"/>
	<line class="st1" x1="-35.1" y1="501" x2="1005.5" y2="501"/>
	<line class="st1" x1="-35.1" y1="514.8" x2="1005.5" y2="514.8"/>
	<line class="st1" x1="-44.1" y1="528.6" x2="996.6" y2="528.6"/>
	<line class="st1" x1="-44.1" y1="542.4" x2="996.6" y2="542.4"/>
	<line class="st1" x1="772.2" y1="-48.5" x2="772.2" y2="576.8"/>
	<line class="st1" x1="758.4" y1="-48.5" x2="758.4" y2="576.8"/>
	<line class="st1" x1="799.7" y1="-48.5" x2="799.7" y2="581"/>
	<line class="st1" x1="786" y1="-48.5" x2="786" y2="581"/>
	<line class="st1" x1="827.3" y1="-48.5" x2="827.3" y2="581"/>
	<line class="st1" x1="813.5" y1="-48.5" x2="813.5" y2="581"/>
	<line class="st1" x1="854.8" y1="-48.5" x2="854.8" y2="581"/>
	<line class="st1" x1="841.1" y1="-48.5" x2="841.1" y2="581"/>
	<line class="st1" x1="882.4" y1="-48.5" x2="882.4" y2="581"/>
	<line class="st1" x1="868.6" y1="-48.5" x2="868.6" y2="581"/>
	<line class="st1" x1="910" y1="-48.5" x2="910" y2="581"/>
	<line class="st1" x1="896.2" y1="-48.5" x2="896.2" y2="581"/>
	<line class="st1" x1="937.5" y1="-48.5" x2="937.5" y2="581"/>
	<line class="st1" x1="923.7" y1="-48.5" x2="923.7" y2="581"/>
	<line class="st1" x1="744.6" y1="-48.5" x2="744.6" y2="586.8"/>
	<line class="st1" x1="978.9" y1="-53" x2="978.9" y2="570.1"/>
	<line class="st1" x1="965.1" y1="-53" x2="965.1" y2="570.1"/>
	<line class="st1" x1="951.3" y1="-53" x2="951.3" y2="569.8"/>
</g>
</svg>
