<?xml version="1.0" encoding="utf-8"?>
<!-- Generator: Adobe Illustrator 19.1.0, SVG Export Plug-In . SVG Version: 6.00 Build 0)  -->
<svg version="1.1" id="Layer_1" xmlns="http://www.w3.org/2000/svg" xmlns:xlink="http://www.w3.org/1999/xlink" x="0px" y="0px"
	 viewBox="0 0 260.5 260.5" style="enable-background:new 0 0 260.5 260.5;" xml:space="preserve">
<style type="text/css">
	.st0{fill:#F16867;}
	.st1{fill:none;stroke:#FFFFFF;stroke-width:5.000000e-02;stroke-miterlimit:10;}
	.st2{fill:#FFFFFF;}
	.st3{font-family:'Futura-Medium';}
	.st4{font-size:37.53px;}
	.st5{letter-spacing:10.1;}
	.st6{fill:none;stroke:#FFFFFF;stroke-width:3;stroke-miterlimit:10;}
</style>
<g>
	
		<rect x="35.5" y="43.9" transform="matrix(0.69 -0.7238 0.7238 0.69 -56.2982 127.0818)" class="st0" width="169.3" height="170.8"/>
	<rect x="47.7" y="56" transform="matrix(-0.69 0.7238 -0.7238 -0.69 296.7427 131.4592)" class="st1" width="145" height="146.5"/>
	<text transform="matrix(0.6831 -0.7165 0.7238 0.69 84.7289 152.4016)" class="st2 st3 st4">C</text>
	<text transform="matrix(0.6831 -0.7165 0.7238 0.69 129.5301 105.9029)" class="st2 st3 st4">L</text>
	<text transform="matrix(0.6831 -0.7165 0.7238 0.69 118.2229 183.9783)"><tspan x="0" y="0" class="st2 st3 st4 st5">A </tspan><tspan x="59.7" y="0" class="st2 st3 st4">U</tspan></text>
	<rect x="131.2" y="93.1" transform="matrix(0.69 -0.7238 0.7238 0.69 -26.2231 128.9322)" class="st2" width="12.5" height="4"/>
</g>
<g>
	
		<rect x="40.5" y="43.9" transform="matrix(0.69 -0.7238 0.7238 0.69 -54.7741 130.6406)" class="st0" width="169.3" height="170.8"/>
	<rect x="52.6" y="56" transform="matrix(-0.69 0.7238 -0.7238 -0.69 305.0528 127.9004)" class="st1" width="145" height="146.5"/>
	<text transform="matrix(0.6831 -0.7165 0.7238 0.69 89.6323 152.3872)" class="st2 st3 st4">C</text>
	<text transform="matrix(0.6831 -0.7165 0.7238 0.69 134.4313 105.8881)" class="st2 st3 st4">L</text>
	<text transform="matrix(0.6831 -0.7165 0.7238 0.69 123.1256 183.9648)"><tspan x="0" y="0" class="st2 st3 st4 st5">A </tspan><tspan x="59.7" y="0" class="st2 st3 st4">U</tspan></text>
	<rect x="136.1" y="93.1" transform="matrix(0.69 -0.7238 0.7238 0.69 -24.699 132.491)" class="st2" width="12.5" height="4"/>
</g>
<g>
	
		<rect x="44.9" y="43.9" transform="matrix(0.69 -0.7238 0.7238 0.69 -53.4077 133.8312)" class="st0" width="169.3" height="170.8"/>
	<rect x="57" y="56" transform="matrix(-0.69 0.7238 -0.7238 -0.69 312.5029 124.7098)" class="st1" width="145" height="146.5"/>
	<text transform="matrix(0.6831 -0.7165 0.7238 0.69 94.025 152.3736)" class="st2 st3 st4">C</text>
	<text transform="matrix(0.6831 -0.7165 0.7238 0.69 138.8475 105.8951)" class="st2 st3 st4">L</text>
	<text transform="matrix(0.6831 -0.7165 0.7238 0.69 127.5403 183.9705)"><tspan x="0" y="0" class="st2 st3 st4 st5">A </tspan><tspan x="59.7" y="0" class="st2 st3 st4">U</tspan></text>
	<rect x="140.5" y="93.1" transform="matrix(0.69 -0.7238 0.7238 0.69 -23.3326 135.6816)" class="st2" width="12.5" height="4"/>
</g>
<g>
	<rect x="49.8" y="43.9" transform="matrix(0.69 -0.7238 0.7238 0.69 -51.8836 137.39)" class="st0" width="169.3" height="170.8"/>
	<rect x="61.9" y="56" transform="matrix(-0.69 0.7238 -0.7238 -0.69 320.8129 121.151)" class="st1" width="145" height="146.5"/>
	<text transform="matrix(0.6831 -0.7165 0.7238 0.69 98.975 152.4038)" class="st2 st3 st4">C</text>
	<text transform="matrix(0.6831 -0.7165 0.7238 0.69 143.7749 105.9037)" class="st2 st3 st4">L</text>
	<text transform="matrix(0.6831 -0.7165 0.7238 0.69 132.4678 183.9791)"><tspan x="0" y="0" class="st2 st3 st4 st5">A </tspan><tspan x="59.7" y="0" class="st2 st3 st4">U</tspan></text>
	<rect x="145.4" y="93.1" transform="matrix(0.69 -0.7238 0.7238 0.69 -21.8085 139.2404)" class="st2" width="12.5" height="4"/>
</g>
<g>
	
		<rect x="54.2" y="43.9" transform="matrix(0.69 -0.7238 0.7238 0.69 -50.5173 140.5806)" class="st0" width="169.3" height="170.8"/>
	<rect x="66.4" y="56" transform="matrix(-0.69 0.7238 -0.7238 -0.69 328.263 117.9605)" class="st6" width="145" height="146.5"/>
	<text transform="matrix(0.6831 -0.7165 0.7238 0.69 103.3693 152.3886)" class="st2 st3 st4">C</text>
	<text transform="matrix(0.6831 -0.7165 0.7238 0.69 148.167 105.8879)" class="st2 st3 st4">L</text>
	<text transform="matrix(0.6831 -0.7165 0.7238 0.69 136.8606 183.9625)"><tspan x="0" y="0" class="st2 st3 st4 st5">A </tspan><tspan x="59.7" y="0" class="st2 st3 st4">U</tspan></text>
	<rect x="149.8" y="93.1" transform="matrix(0.69 -0.7238 0.7238 0.69 -20.4421 142.431)" class="st2" width="12.5" height="4"/>
</g>
</svg>
