<?xml version="1.0" encoding="utf-8"?>
<!-- Generator: Adobe Illustrator 19.1.0, SVG Export Plug-In . SVG Version: 6.00 Build 0)  -->
<svg version="1.1" id="Layer_1" xmlns="http://www.w3.org/2000/svg" xmlns:xlink="http://www.w3.org/1999/xlink" x="0px" y="0px"
	 viewBox="-25 27 48 48" style="enable-background:new -25 27 48 48;" xml:space="preserve">
<style type="text/css">
	.st0{fill:#FFFFFF;}
</style>
<g>
	<path class="st0" d="M7.6,47.3L7.6,47.3c-2.1,1.2-4.9,2.5-8.2,3.5c-0.7,0.2-1.2,0.1-1.4,0c-3.3-1.4-5.6-2.5-7.7-3.7c0,0,0,0,0,0
		c-1.3-0.7-1.3,0-1.3,0v8.1c0,1.1,0.9,2,2,2H6.4c1.1,0,2-0.9,2-2v-7.9C8.4,46.8,7.6,47.3,7.6,47.3z"/>
	<path class="st0" d="M-1,27c-13.3,0-24,10.7-24,24c0,13.3,10.7,24,24,24s24-10.7,24-24C23,37.7,12.3,27-1,27z M12.2,58.4
		c0,1.1-0.9,2-2,2h-22.4c-1.1,0-2-0.9-2-2V43.6c0-1.1,0.9-2,2-2h22.4c1.1,0,2,0.9,2,2V58.4z"/>
</g>
</svg>
