<?xml version="1.0" encoding="utf-8"?>
<!-- Generator: Adobe Illustrator 19.1.0, SVG Export Plug-In . SVG Version: 6.00 Build 0)  -->
<svg version="1.1" id="Layer_1" xmlns="http://www.w3.org/2000/svg" xmlns:xlink="http://www.w3.org/1999/xlink" x="0px" y="0px"
	 viewBox="-25 27 48 48" style="enable-background:new -25 27 48 48;" xml:space="preserve">
<style type="text/css">
	.st0{fill:#A4C0FC;}
</style>
<g id="Expanded">
	<g>
		<g>
			<path class="st0" d="M1,75h-4c-1.7,0-3-1.3-3-3v-3.7c-1.3-0.4-2.5-0.9-3.7-1.5l-2.6,2.6c-1.1,1.1-3.1,1.1-4.2,0l-2.8-2.8
				c-0.6-0.6-0.9-1.3-0.9-2.1c0-0.8,0.3-1.6,0.9-2.1l2.6-2.6c-0.6-1.2-1.2-2.4-1.5-3.7H-22c-1.7,0-3-1.3-3-3v-4
				c0-0.8,0.3-1.6,0.9-2.1c0.6-0.6,1.3-0.9,2.1-0.9h3.7c0.4-1.3,0.9-2.5,1.5-3.7l-2.6-2.6c-1.2-1.2-1.2-3.1,0-4.2l2.8-2.8
				c1.1-1.1,3.1-1.1,4.2,0l2.6,2.6c1.2-0.6,2.4-1.2,3.7-1.5V30c0-1.7,1.3-3,3-3h4c1.7,0,3,1.3,3,3v3.7c1.3,0.4,2.5,0.9,3.7,1.5
				l2.6-2.6c1.1-1.1,3.1-1.1,4.2,0l2.8,2.8c0.6,0.6,0.9,1.3,0.9,2.1s-0.3,1.6-0.9,2.1l-2.6,2.6c0.6,1.2,1.2,2.4,1.5,3.7H20
				c1.7,0,3,1.3,3,3v4c0,0.8-0.3,1.6-0.9,2.1C21.6,55.7,20.8,56,20,56h-3.7c-0.4,1.3-0.9,2.5-1.5,3.7l2.6,2.6c1.2,1.2,1.2,3.1,0,4.2
				l-2.8,2.8c-1.1,1.1-3.1,1.1-4.2,0l-2.6-2.6c-1.2,0.6-2.4,1.2-3.7,1.5V72C4,73.7,2.7,75,1,75z M-9.8,64.5c0.2,0,0.4,0,0.5,0.1
				c1.4,0.9,2.9,1.5,4.6,1.9c0.4,0.1,0.8,0.5,0.8,1V72c0,0.6,0.4,1,1,1h4c0.6,0,1-0.4,1-1v-4.5c0-0.5,0.3-0.9,0.8-1
				c1.6-0.4,3.1-1,4.6-1.9c0.4-0.2,0.9-0.2,1.2,0.1l3.2,3.2c0.4,0.4,1,0.4,1.4,0l2.8-2.8c0.4-0.4,0.4-1,0-1.4l-3.2-3.2
				c-0.3-0.3-0.4-0.8-0.1-1.2c0.9-1.4,1.5-2.9,1.9-4.6c0.1-0.4,0.5-0.8,1-0.8H20c0.3,0,0.5-0.1,0.7-0.3c0.2-0.2,0.3-0.4,0.3-0.7v-4
				c0-0.6-0.4-1-1-1h-4.5c-0.5,0-0.9-0.3-1-0.8c-0.4-1.6-1-3.1-1.9-4.6c-0.2-0.4-0.2-0.9,0.1-1.2l3.2-3.2c0.2-0.2,0.3-0.4,0.3-0.7
				S16.2,37,16,36.9L13.1,34c-0.4-0.4-1-0.4-1.4,0l-3.2,3.2c-0.3,0.3-0.8,0.4-1.2,0.1c-1.4-0.9-2.9-1.5-4.6-1.9
				C2.3,35.4,2,35,2,34.5V30c0-0.6-0.4-1-1-1h-4c-0.6,0-1,0.4-1,1v4.5c0,0.5-0.3,0.9-0.8,1c-1.6,0.4-3.1,1-4.6,1.9
				c-0.4,0.2-0.9,0.2-1.2-0.1l-3.2-3.2c-0.4-0.4-1-0.4-1.4,0l-2.8,2.8c-0.4,0.4-0.4,1,0,1.4l3.2,3.2c0.3,0.3,0.4,0.8,0.1,1.2
				c-0.9,1.4-1.5,2.9-1.9,4.6c-0.1,0.4-0.5,0.8-1,0.8H-22c-0.3,0-0.5,0.1-0.7,0.3c-0.2,0.2-0.3,0.4-0.3,0.7v4c0,0.6,0.4,1,1,1h4.5
				c0.5,0,0.9,0.3,1,0.8c0.4,1.6,1,3.1,1.9,4.6c0.2,0.4,0.2,0.9-0.1,1.2l-3.2,3.2c-0.2,0.2-0.3,0.4-0.3,0.7s0.1,0.5,0.3,0.7l2.8,2.8
				c0.4,0.4,1,0.4,1.4,0l3.2-3.2C-10.4,64.6-10.1,64.5-9.8,64.5z"/>
		</g>
		<g>
			<path class="st0" d="M-1,61c-5.5,0-10-4.5-10-10s4.5-10,10-10S9,45.5,9,51S4.5,61-1,61z M-1,43c-4.4,0-8,3.6-8,8s3.6,8,8,8
				s8-3.6,8-8S3.4,43-1,43z"/>
		</g>
	</g>
</g>
</svg>
