<?xml version="1.0" encoding="utf-8"?>
<!-- Generator: Adobe Illustrator 19.1.0, SVG Export Plug-In . SVG Version: 6.00 Build 0)  -->
<svg version="1.1" id="Layer_1" xmlns="http://www.w3.org/2000/svg" xmlns:xlink="http://www.w3.org/1999/xlink" x="0px" y="0px"
	 viewBox="270 -485.2 657.9 750.1" style="enable-background:new 270 -485.2 657.9 750.1;" xml:space="preserve">
<style type="text/css">
	.st0{fill:#A4C0FC;}
</style>
<path class="st0" d="M786.6-332.5c-54.3,0-98.4,44-98.4,98.4c0,36.3,19.9,67.7,49.2,84.8v13.6c0,0,0,98.4-98.4,98.4
	c-40.8,0-72.8,8.8-98.4,22.1v-232.5c29.4-17.1,49.2-48.5,49.2-84.8c0-54.3-44-98.4-98.4-98.4s-98.4,44-98.4,98.4
	c0,36.3,19.8,67.7,49.2,84.8V74.7c-29.4,17.1-49.2,48.4-49.2,84.7c0,54.3,44,98.4,98.4,98.4s98.4-44.1,98.4-98.4
	c0-25.8-10.1-49-26.3-66.6c14.3-17.6,37.6-31.8,75.5-31.8c195.2,0,196.8-196.8,196.8-196.8v-13.6c29.3-17.1,49.2-48.5,49.2-84.8
	C885-288.5,840.8-332.5,786.6-332.5z M491.4-381.7c27.2,0,49.2,22,49.2,49.2s-22,49.2-49.2,49.2s-49.2-22-49.2-49.2
	S464.2-381.7,491.4-381.7z M491.4,208.6c-27.2,0-49.2-22-49.2-49.2c0-27.1,22-49.2,49.2-49.2s49.2,22.1,49.2,49.2
	C540.6,186.7,518.6,208.6,491.4,208.6z M786.6-184.9c-27.2,0-49.2-22-49.2-49.2s22-49.2,49.2-49.2c27.2,0,49.2,22,49.2,49.2
	S813.8-184.9,786.6-184.9z"/>
</svg>
