<?xml version="1.0" encoding="utf-8"?>
<!-- Generator: Adobe Illustrator 19.1.0, SVG Export Plug-In . SVG Version: 6.00 Build 0)  -->
<svg version="1.1" id="Layer_1" xmlns="http://www.w3.org/2000/svg" xmlns:xlink="http://www.w3.org/1999/xlink" x="0px" y="0px"
	 viewBox="270 -462 640 1024" style="enable-background:new 270 -462 640 1024;" xml:space="preserve">
<style type="text/css">
	.st0{fill:#A4C0FC;}
</style>
<path class="st0" d="M782-270c-70.6,0-128,57.3-128,128c0,47.2,25.9,88.1,64,110.3V-14c0,0,0,128-128,128
	c-53.1,0-94.7,11.4-128,28.8v-302.5c38.2-22.2,64-63.1,64-110.3c0-70.7-57.3-128-128-128s-128,57.3-128,128
	c0,47.2,25.8,88.1,64,110.3v419.5c-38.2,22.2-64,63-64,110.2c0,70.6,57.3,128,128,128s128-57.4,128-128c0-33.5-13.2-63.8-34.2-86.6
	c18.6-22.9,48.9-41.4,98.2-41.4c254,0,256-256,256-256v-17.7c38.1-22.2,64-63.1,64-110.3C910-212.7,852.6-270,782-270z M398-334
	c35.4,0,64,28.6,64,64s-28.6,64-64,64s-64-28.6-64-64S362.6-334,398-334z M398,434c-35.4,0-64-28.6-64-64c0-35.3,28.6-64,64-64
	s64,28.7,64,64C462,405.4,433.4,434,398,434z M782-78c-35.4,0-64-28.6-64-64s28.6-64,64-64s64,28.6,64,64S817.4-78,782-78z"/>
</svg>
