<?xml version="1.0" encoding="utf-8"?>
<!-- Generator: Adobe Illustrator 19.1.0, SVG Export Plug-In . SVG Version: 6.00 Build 0)  -->
<svg version="1.1" id="Layer_1" xmlns="http://www.w3.org/2000/svg" xmlns:xlink="http://www.w3.org/1999/xlink" x="0px" y="0px"
	 viewBox="-25 27 48 48" style="enable-background:new -25 27 48 48;" xml:space="preserve">
<style type="text/css">
	.st0{fill:#FFFFFF;}
</style>
<g id="Expanded">
	<g>
		<g>
			<path class="st0" d="M19,67h-40c-2.2,0-4-1.8-4-4V39c0-2.2,1.8-4,4-4h40c2.2,0,4,1.8,4,4v24C23,65.2,21.2,67,19,67z M-21,37
				c-1.1,0-2,0.9-2,2v24c0,1.1,0.9,2,2,2h40c1.1,0,2-0.9,2-2V39c0-1.1-0.9-2-2-2H-21z"/>
		</g>
		<g>
			<path class="st0" d="M-1,56.2l-17.5-11.4c-0.5-0.3-0.6-0.9-0.3-1.4s0.9-0.6,1.4-0.3L-1,53.8l16.5-10.6c0.5-0.3,1.1-0.2,1.4,0.3
				s0.2,1.1-0.3,1.4L-1,56.2z"/>
		</g>
		<g>
			<path class="st0" d="M-19,61c-0.3,0-0.6-0.2-0.8-0.4c-0.3-0.5-0.2-1.1,0.3-1.4l9-6c0.5-0.3,1.1-0.2,1.4,0.3
				c0.3,0.5,0.2,1.1-0.3,1.4l-9,6C-18.6,60.9-18.8,61-19,61z"/>
		</g>
		<g>
			<path class="st0" d="M17,61c-0.2,0-0.4-0.1-0.6-0.2l-9-6c-0.5-0.3-0.6-0.9-0.3-1.4c0.3-0.5,0.9-0.6,1.4-0.3l9,6
				c0.5,0.3,0.6,0.9,0.3,1.4C17.6,60.8,17.3,61,17,61z"/>
		</g>
	</g>
</g>
</svg>
