<?xml version="1.0" encoding="utf-8"?>
<!-- Generator: Adobe Illustrator 19.1.0, SVG Export Plug-In . SVG Version: 6.00 Build 0)  -->
<svg version="1.1" id="Layer_1" xmlns="http://www.w3.org/2000/svg" xmlns:xlink="http://www.w3.org/1999/xlink" x="0px" y="0px"
	 viewBox="-25 27 48 48" style="enable-background:new -25 27 48 48;" xml:space="preserve">
<style type="text/css">
	.st0{fill:#A4C0FC;}
</style>
<g id="Expanded">
	<g>
		<g>
			<path class="st0" d="M12,75h-37V31H4c0.6,0,1,0.4,1,1c0,0.6-0.4,1-1,1h-27v40h33V51c0-0.6,0.4-1,1-1s1,0.4,1,1V75z"/>
		</g>
		<g>
			<path class="st0" d="M-3,44"/>
		</g>
		<g>
			<path class="st0" d="M-3.4,54.4c-0.3,0-0.5-0.1-0.7-0.3c-0.3-0.3-0.4-0.8-0.2-1.2l2.8-5.7c0-0.1,0.1-0.2,0.2-0.3l19.1-19.1
				c0.6-0.6,1.3-0.9,2.1-0.9c1.2,0,2.4,0.8,2.8,2c0.5,1.1,0.2,2.3-0.7,3.2L3,51.2c-0.1,0.1-0.2,0.1-0.3,0.2l-5.7,2.8
				C-3.1,54.3-3.2,54.4-3.4,54.4z M0.3,48.3l-1.4,2.8l2.8-1.4l19-19c0.3-0.3,0.4-0.7,0.2-1c-0.2-0.4-0.6-0.7-1-0.7
				c-0.2,0-0.5,0.1-0.7,0.3L0.3,48.3z"/>
		</g>
		<g>
			<path class="st0" d="M18.6,35.3c-0.3,0-0.5-0.1-0.7-0.3L15,32.1c-0.4-0.4-0.4-1,0-1.4c0.4-0.4,1-0.4,1.4,0l2.8,2.8
				c0.4,0.4,0.4,1,0,1.4C19.1,35.2,18.8,35.3,18.6,35.3z"/>
		</g>
	</g>
</g>
</svg>
