<?xml version="1.0" encoding="utf-8"?>
<!-- Generator: Adobe Illustrator 19.1.0, SVG Export Plug-In . SVG Version: 6.00 Build 0)  -->
<svg version="1.1" id="Layer_1" xmlns="http://www.w3.org/2000/svg" xmlns:xlink="http://www.w3.org/1999/xlink" x="0px" y="0px"
	 viewBox="-25 27 48 48" style="enable-background:new -25 27 48 48;" xml:space="preserve">
<style type="text/css">
	.st0{fill:#A4C0FC;}
</style>
<g id="Expanded">
	<g>
		<g>
			<path class="st0" d="M18,71h-38c-2.8,0-5-2.2-5-5V38c0-2.8,2.2-5,5-5h38c2.8,0,5,2.2,5,5v28C23,68.8,20.8,71,18,71z M-20,35
				c-1.7,0-3,1.3-3,3v28c0,1.7,1.3,3,3,3h38c1.7,0,3-1.3,3-3V38c0-1.7-1.3-3-3-3H-20z"/>
		</g>
		<g>
			<path class="st0" d="M22,45h-46c-0.6,0-1-0.4-1-1s0.4-1,1-1h46c0.6,0,1,0.4,1,1S22.6,45,22,45z"/>
		</g>
		<g>
			<circle class="st0" cx="-17" cy="39" r="2"/>
		</g>
		<g>
			<circle class="st0" cx="-11" cy="39" r="2"/>
		</g>
		<g>
			<circle class="st0" cx="-5" cy="39" r="2"/>
		</g>
	</g>
</g>
</svg>
