<?xml version="1.0" encoding="utf-8"?>
<!-- Generator: Adobe Illustrator 19.1.0, SVG Export Plug-In . SVG Version: 6.00 Build 0)  -->
<svg version="1.1" id="Layer_1" xmlns="http://www.w3.org/2000/svg" xmlns:xlink="http://www.w3.org/1999/xlink" x="0px" y="0px"
	 viewBox="-25 27 48 48" style="enable-background:new -25 27 48 48;" xml:space="preserve">
<style type="text/css">
	.st0{fill:#A4C0FC;}
</style>
<path class="st0" d="M16,74L16,74h-34l0,0c-2.8,0-5-2.2-5-5V29c0-0.6,0.4-1,1-1l0,0h34l0,0c0.4,0,0.8,0.3,0.9,0.6
	c0,0.1,0.1,0.3,0.1,0.4l0,0v14h7c0.6,0,1,0.4,1,1v25C21,71.8,18.8,74,16,74z M11,69V30h-32v39l0,0l0,0c0,1.7,1.3,3,3,3h30
	C11.4,71.2,11,70.1,11,69z M19,45h-6v24c0,1.7,1.3,3,3,3s3-1.3,3-3V45z M-18,67c0-0.6,0.4-1,1-1h9c0.6,0,1,0.4,1,1c0,0.6-0.4,1-1,1
	h-9C-17.6,68-18,67.6-18,67z M-13.3,50.7c-0.4,0.4-1,0.4-1.4,0c-0.4-0.4-0.4-1,0-1.4l5.9-5.9c0,0,0.1-0.1,0.1-0.1
	C-8.5,43.1-8.3,43-8,43c0.3,0,0.5,0.1,0.7,0.3c0,0,0.1,0.1,0.1,0.1l4.2,4.2l2.2-2.2c0,0,0.1-0.1,0.1-0.1C-0.5,45.1-0.3,45,0,45
	c0.3,0,0.5,0.1,0.7,0.3c0,0,0.1,0.1,0.1,0.1l3.9,3.9c0.4,0.4,0.4,1,0,1.4c-0.4,0.4-1,0.4-1.4,0L0,47.4L-1.6,49l0.3,0.3
	c0.4,0.4,0.4,1,0,1.4s-1,0.4-1.4,0L-8,45.4L-13.3,50.7z M-2,56h9c0.6,0,1,0.4,1,1c0,0.6-0.4,1-1,1h-9c-0.6,0-1-0.4-1-1
	C-3,56.4-2.6,56-2,56z M-2,61h9c0.6,0,1,0.4,1,1c0,0.6-0.4,1-1,1h-9c-0.6,0-1-0.4-1-1C-3,61.4-2.6,61-2,61z M-2,66h9
	c0.6,0,1,0.4,1,1c0,0.6-0.4,1-1,1h-9c-0.6,0-1-0.4-1-1C-3,66.4-2.6,66-2,66z M-1,42.5c0,0.8-0.7,1.5-1.5,1.5S-4,43.3-4,42.5
	S-3.3,41-2.5,41S-1,41.7-1,42.5z M2,37h-14c-0.6,0-1-0.4-1-1s0.4-1,1-1H2c0.6,0,1,0.4,1,1S2.6,37,2,37z M-17,61h9c0.6,0,1,0.4,1,1
	c0,0.6-0.4,1-1,1h-9c-0.6,0-1-0.4-1-1C-18,61.4-17.6,61-17,61z M-7,57c0,0.6-0.4,1-1,1h-9c-0.6,0-1-0.4-1-1c0-0.6,0.4-1,1-1h9
	C-7.4,56-7,56.4-7,57z"/>
</svg>
