<?xml version="1.0" encoding="utf-8"?>
<!-- Generator: Adobe Illustrator 19.1.0, SVG Export Plug-In . SVG Version: 6.00 Build 0)  -->
<svg version="1.1" id="Layer_1" xmlns="http://www.w3.org/2000/svg" xmlns:xlink="http://www.w3.org/1999/xlink" x="0px" y="0px"
	 viewBox="-25 27 48 48" style="enable-background:new -25 27 48 48;" xml:space="preserve">
<style type="text/css">
	.st0{fill:#A4C0FC;}
</style>
<g id="Expanded">
	<g>
		<g>
			<path class="st0" d="M-1,47c-11.2,0-20-4-20-9s8.8-9,20-9s20,4,20,9S10.2,47-1,47z M-1,31c-8.5,0-18,2.9-18,7s9.5,7,18,7
				s18-2.9,18-7S7.5,31-1,31z"/>
		</g>
		<g>
			<path class="st0" d="M-1,55c-11.2,0-20-4-20-9v-8c0-0.6,0.4-1,1-1s1,0.4,1,1v8c0,4.1,9.5,7,18,7s18-2.9,18-7v-8c0-0.6,0.4-1,1-1
				s1,0.4,1,1v8C19,51,10.2,55-1,55z"/>
		</g>
		<g>
			<path class="st0" d="M-1,64c-11.2,0-20-4-20-9v-9c0-0.6,0.4-1,1-1s1,0.4,1,1v9c0,4.1,9.5,7,18,7s18-2.9,18-7v-9c0-0.6,0.4-1,1-1
				s1,0.4,1,1v9C19,60,10.2,64-1,64z"/>
		</g>
		<g>
			<path class="st0" d="M-1,73c-11.2,0-20-4-20-9v-9c0-0.6,0.4-1,1-1s1,0.4,1,1v9c0,4.1,9.5,7,18,7s18-2.9,18-7v-9c0-0.6,0.4-1,1-1
				s1,0.4,1,1v9C19,69,10.2,73-1,73z"/>
		</g>
	</g>
</g>
</svg>
