<?xml version="1.0" encoding="utf-8"?>
<!-- Generator: Adobe Illustrator 19.1.0, SVG Export Plug-In . SVG Version: 6.00 Build 0)  -->
<svg version="1.1" id="Layer_1" xmlns="http://www.w3.org/2000/svg" xmlns:xlink="http://www.w3.org/1999/xlink" x="0px" y="0px"
	 viewBox="-25 27 48 48" style="enable-background:new -25 27 48 48;" xml:space="preserve">
<style type="text/css">
	.st0{fill:#A4C0FC;}
</style>
<g id="Expanded">
	<g>
		<g>
			<path class="st0" d="M-2,75c-0.1,0-0.3,0-0.4-0.1l-21-10c-0.3-0.2-0.6-0.5-0.6-0.9V33c0-0.3,0.2-0.7,0.5-0.8
				c0.3-0.2,0.7-0.2,1-0.1L-2,41.9l20.6-9.8c0.3-0.1,0.7-0.1,1,0.1c0.3,0.2,0.5,0.5,0.5,0.8v31c0,0.4-0.2,0.7-0.6,0.9l-21,10
				C-1.7,75-1.9,75-2,75z M-22,63.4l20,9.5l20-9.5V34.6L-1.6,44c-0.3,0.1-0.6,0.1-0.9,0L-22,34.6V63.4z"/>
		</g>
		<g>
			<path class="st0" d="M-2,39.2l-17.4-8.3c-0.5-0.2-0.7-0.8-0.5-1.3c0.2-0.5,0.8-0.7,1.3-0.5L-2,37l16.6-7.9c0.5-0.2,1.1,0,1.3,0.5
				c0.2,0.5,0,1.1-0.5,1.3L-2,39.2z"/>
		</g>
		<g>
			<rect x="-3" y="43" class="st0" width="2" height="31"/>
		</g>
	</g>
</g>
</svg>
