<?xml version="1.0" encoding="utf-8"?>
<!-- Generator: Adobe Illustrator 19.1.0, SVG Export Plug-In . SVG Version: 6.00 Build 0)  -->
<svg version="1.1" id="Layer_1" xmlns="http://www.w3.org/2000/svg" xmlns:xlink="http://www.w3.org/1999/xlink" x="0px" y="0px"
	 viewBox="-25 27 48 48" style="enable-background:new -25 27 48 48;" xml:space="preserve">
<style type="text/css">
	.st0{fill:#A4C0FC;}
</style>
<g id="Expanded">
	<g>
		<g>
			<path class="st0" d="M15,53h-32V33h32V53z M-15,51h28V35h-28V51z"/>
		</g>
		<g>
			<path class="st0" d="M8.3,67h-18.6l1.5-6H6.8L8.3,67z M-7.7,65H5.7l-0.5-2H-7.2L-7.7,65z"/>
		</g>
		<g>
			<path class="st0" d="M19,75h-40c-2.2,0-4-1.8-4-4l0-1.3l4-13.9V33c0-2.2,1.8-4,4-4h32c2.2,0,4,1.8,4,4v21.9L23,70v1
				C23,73.2,21.2,75,19,75z M-23,70.1V71c0,1.1,0.9,2,2,2h40c1.1,0,2-0.9,2-2v-0.9L17,55V33c0-1.1-0.9-2-2-2h-32c-1.1,0-2,0.9-2,2
				l0,23.3L-23,70.1z"/>
		</g>
		<g>
			<rect x="-20" y="55" class="st0" width="38" height="2"/>
		</g>
		<g>
			<rect x="-24" y="69" class="st0" width="46" height="2"/>
		</g>
	</g>
</g>
</svg>
