<?xml version="1.0" encoding="utf-8"?>
<!-- Generator: Adobe Illustrator 19.1.0, SVG Export Plug-In . SVG Version: 6.00 Build 0)  -->
<svg version="1.1" id="Layer_1" xmlns="http://www.w3.org/2000/svg" xmlns:xlink="http://www.w3.org/1999/xlink" x="0px" y="0px"
	 viewBox="-25 27 48 48" style="enable-background:new -25 27 48 48;" xml:space="preserve">
<style type="text/css">
	.st0{fill:#A4C0FC;}
</style>
<g id="Expanded">
	<g>
		<g>
			<path class="st0" d="M19,67h-40c-2.2,0-4-1.8-4-4V33c0-2.2,1.8-4,4-4h40c2.2,0,4,1.8,4,4v30C23,65.2,21.2,67,19,67z M-21,31
				c-1.1,0-2,0.9-2,2v30c0,1.1,0.9,2,2,2h40c1.1,0,2-0.9,2-2V33c0-1.1-0.9-2-2-2H-21z"/>
		</g>
		<g>
			<path class="st0" d="M13,73h-28c-0.6,0-1-0.4-1-1s0.4-1,1-1h28c0.6,0,1,0.4,1,1S13.6,73,13,73z"/>
		</g>
		<g>
			<path class="st0" d="M6,73C6,73,6,73,6,73H-8c-0.3,0-0.6-0.2-0.8-0.4C-9,72.3-9.1,72-8.9,71.7l2-6C-6.8,65.3-6.4,65-6,65H4
				c0.4,0,0.8,0.3,0.9,0.7l1.9,5.8C7,71.7,7,71.8,7,72C7,72.6,6.6,73,6,73z M-6.6,71H4.6l-1.3-4h-8.6L-6.6,71z"/>
		</g>
		<g>
			<path class="st0" d="M19,59h-40V33h40V59z M-19,57h36V35h-36V57z"/>
		</g>
		<g>
			<circle class="st0" cx="-1" cy="62" r="2"/>
		</g>
	</g>
</g>
</svg>
