<?xml version="1.0" encoding="utf-8"?>
<!-- Generator: Adobe Illustrator 19.1.0, SVG Export Plug-In . SVG Version: 6.00 Build 0)  -->
<svg version="1.1" id="Layer_1" xmlns:sketch="http://www.bohemiancoding.com/sketch/ns"
	 xmlns="http://www.w3.org/2000/svg" xmlns:xlink="http://www.w3.org/1999/xlink" x="0px" y="0px" viewBox="-37 39 24 24"
	 style="enable-background:new -37 39 24 24;" xml:space="preserve">
<style type="text/css">
	.st0{fill:#A4C0FC;}
</style>
<title></title>
<desc></desc>
<g id="miu">
	<g id="Artboard-1" transform="translate(-503.000000, -227.000000)">
		<g id="slice" transform="translate(215.000000, 119.000000)">
		</g>
		<path id="editor-documents-files-outline-stroke" class="st0" d="M469.2,270c-0.1,0-0.2,0.1-0.2,0.2v18.6c0,0.1,0.1,0.2,0.2,0.2
			h14.6c0.1,0,0.2-0.1,0.2-0.2v-18.6c0-0.1-0.1-0.2-0.2-0.2H469.2z M470,271v17h13v-17H470z M471,273v1h11v-1H471L471,273z M471,276
			v1h11v-1H471L471,276z M471,279v1h11v-1H471L471,279z M471,282v1h11v-1H471L471,282z M471,285v1h7v-1H471L471,285z M472,269h1v-1
			h13v17h-1v1h2v-19h-15V269z"/>
	</g>
</g>
</svg>
