<?xml version="1.0" encoding="utf-8"?>
<!-- Generator: Adobe Illustrator 19.1.0, SVG Export Plug-In . SVG Version: 6.00 Build 0)  -->
<svg version="1.1" id="Layer_1" xmlns="http://www.w3.org/2000/svg" xmlns:xlink="http://www.w3.org/1999/xlink" x="0px" y="0px"
	 viewBox="-25 27 48 48" style="enable-background:new -25 27 48 48;" xml:space="preserve">
<style type="text/css">
	.st0{fill:#A4C0FC;}
</style>
<path class="st0" d="M12,74h-26c-2.2,0-4-1.8-4-4V32c0-2.2,1.8-4,4-4H5c0,0,0,0,0,0h0l0,0c0.3,0,0.6,0.2,0.8,0.4l9.8,9.8
	c0.2,0.2,0.4,0.5,0.4,0.8l0,0v0c0,0,0,0,0,0v31C16,72.2,14.2,74,12,74z M6,31.4V38h6.6L6,31.4z M14,40H5c-0.6,0-1-0.4-1-1v-9h-18
	c-1.1,0-2,0.9-2,2v38c0,1.1,0.9,2,2,2h26c1.1,0,2-0.9,2-2V40z M8,66h-18c-0.6,0-1-0.4-1-1c0-0.6,0.4-1,1-1H8c0.6,0,1,0.4,1,1
	C9,65.6,8.6,66,8,66z M8,58h-18c-0.6,0-1-0.4-1-1c0-0.6,0.4-1,1-1H8c0.6,0,1,0.4,1,1C9,57.6,8.6,58,8,58z M8,50h-18
	c-0.6,0-1-0.4-1-1c0-0.6,0.4-1,1-1H8c0.6,0,1,0.4,1,1C9,49.6,8.6,50,8,50z"/>
</svg>
