<?xml version="1.0" encoding="utf-8"?>
<!-- Generator: Adobe Illustrator 19.1.0, SVG Export Plug-In . SVG Version: 6.00 Build 0)  -->
<svg version="1.1" id="Layer_1" xmlns="http://www.w3.org/2000/svg" xmlns:xlink="http://www.w3.org/1999/xlink" x="0px" y="0px"
	 viewBox="-16 17 67 67" style="enable-background:new -16 17 67 67;" xml:space="preserve">
<style type="text/css">
	.st0{fill:#FFFFFF;}
</style>
<path class="st0" d="M34.8,65.1V53.4c0-6.3-3.3-9.2-7.8-9.2c-3.6,0-5.2,2-6.1,3.4v-2.9h-6.8c0.1,1.9,0,20.4,0,20.4h6.8V53.7
	c0-0.6,0-1.2,0.2-1.7c0.5-1.2,1.6-2.5,3.5-2.5c2.5,0,3.4,1.9,3.4,4.6v10.9L34.8,65.1L34.8,65.1z M7,41.9c2.4,0,3.8-1.6,3.8-3.5
	c0-2-1.5-3.5-3.8-3.5s-3.8,1.5-3.8,3.5C3.2,40.4,4.6,41.9,7,41.9L7,41.9z M18,81C1.4,81-12,67.6-12,51c0-16.6,13.4-30,30-30
	s30,13.4,30,30C48,67.6,34.6,81,18,81z M10.4,65.1V44.7H3.6v20.4H10.4z"/>
</svg>
