<?xml version="1.0" encoding="utf-8"?>
<!-- Generator: Adobe Illustrator 19.1.0, SVG Export Plug-In . SVG Version: 6.00 Build 0)  -->
<svg version="1.1" id="Layer_1" xmlns:sketch="http://www.bohemiancoding.com/sketch/ns"
	 xmlns="http://www.w3.org/2000/svg" xmlns:xlink="http://www.w3.org/1999/xlink" x="0px" y="0px" viewBox="-37 39 24 24"
	 style="enable-background:new -37 39 24 24;" xml:space="preserve">
<style type="text/css">
	.st0{fill:#A4C0FC;}
</style>
<title></title>
<desc></desc>
<g id="miu">
	<g id="Artboard-1" transform="translate(-863.000000, -479.000000)">
		<g id="slice" transform="translate(215.000000, 119.000000)">
		</g>
		<path id="editor-trash-delete-recycle-bin-outline-stroke" class="st0" d="M838.3,521.7c0,0-0.2-0.2-0.8,0.3s-0.3,0.8-0.3,0.8
			l8.5,8.5c0,0,0.2,0.2,0.8-0.3s0.3-0.8,0.3-0.8L838.3,521.7L838.3,521.7z M836.8,523.7l0.5,0.5l-8.7,10.6l5.2,5.2l10.6-8.7l0.5,0.5
			l-11.2,9.3l-6.1-6.1L836.8,523.7z M842.4,524.7c-0.5-0.5-1,0.1-1,0.1l2.4,2.4c0,0,0.6-0.6,0.1-1L842.4,524.7L842.4,524.7z"/>
	</g>
</g>
<rect x="-19.6" y="43.1" transform="matrix(0.7068 0.7074 -0.7074 0.7068 26.6429 26.8203)" class="st0" width="1.1" height="4.8"/>
<rect x="-16.6" y="42.4" transform="matrix(-1.265769e-02 0.9999 -0.9999 -1.265769e-02 27.6019 60.6684)" class="st0" width="1" height="3.1"/>
</svg>
