<?xml version="1.0" encoding="utf-8"?>
<!-- Generator: Adobe Illustrator 19.1.0, SVG Export Plug-In . SVG Version: 6.00 Build 0)  -->
<svg version="1.1" id="Layer_1" xmlns:sketch="http://www.bohemiancoding.com/sketch/ns"
	 xmlns="http://www.w3.org/2000/svg" xmlns:xlink="http://www.w3.org/1999/xlink" x="0px" y="0px" viewBox="-37 39 24 22.4"
	 style="enable-background:new -37 39 24 22.4;" xml:space="preserve">
<style type="text/css">
	.st0{fill:#A4C0FC;}
</style>
<title></title>
<desc></desc>
<g id="miu">
	<g id="Artboard-1" transform="translate(-863.000000, -479.000000)">
		<g id="slice" transform="translate(215.000000, 119.000000)">
		</g>
		<path id="editor-trash-delete-recycle-bin-outline-stroke" class="st0" d="M838.6,518.3c0,0-0.2-0.2-0.9,0.3
			c-0.7,0.6-0.3,0.9-0.3,0.9l9.6,9.6c0,0,0.2,0.2,0.9-0.3c0.7-0.6,0.3-0.9,0.3-0.9L838.6,518.3L838.6,518.3z M836.9,520.5l0.6,0.6
			l-9.8,12l5.9,5.9l12-9.8l0.6,0.6l-12.6,10.5l-6.9-6.9L836.9,520.5z M843.2,521.7c-0.6-0.6-1.1,0.1-1.1,0.1l2.7,2.7
			c0,0,0.7-0.7,0.1-1.1L843.2,521.7L843.2,521.7z"/>
	</g>
</g>
<rect x="-18.6" y="39.7" transform="matrix(-0.7068 -0.7074 0.7074 -0.7068 -60.7369 59.7384)" class="st0" width="1.2" height="5.4"/>
<rect x="-15.3" y="39" transform="matrix(1.265794e-02 -0.9999 0.9999 1.265794e-02 -55.3403 25.5062)" class="st0" width="1.1" height="3.5"/>
</svg>
