<?xml version="1.0" encoding="utf-8"?>
<!-- Generator: Adobe Illustrator 19.1.0, SVG Export Plug-In . SVG Version: 6.00 Build 0)  -->
<svg version="1.1" id="Layer_1" xmlns="http://www.w3.org/2000/svg" xmlns:xlink="http://www.w3.org/1999/xlink" x="0px" y="0px"
	 viewBox="-25 27 48 48" style="enable-background:new -25 27 48 48;" xml:space="preserve">
<style type="text/css">
	.st0{fill:#A4C0FC;}
</style>
<g id="Expanded">
	<g>
		<g>
			<path class="st0" d="M19,73h-40c-2.2,0-4-1.8-4-4V43c0-2.2,1.8-4,4-4h40c2.2,0,4,1.8,4,4v26C23,71.2,21.2,73,19,73z M-21,41
				c-1.1,0-2,0.9-2,2v26c0,1.1,0.9,2,2,2h40c1.1,0,2-0.9,2-2V43c0-1.1-0.9-2-2-2H-21z"/>
		</g>
		<g>
			<path class="st0" d="M7,36H5v-2c0-0.6-0.4-1-1-1H-6c-0.6,0-1,0.4-1,1v2h-2v-2c0-1.7,1.3-3,3-3H4c1.7,0,3,1.3,3,3V36z"/>
		</g>
		<g>
			<path class="st0" d="M15,49h-33c-0.6,0-1-0.4-1-1s0.4-1,1-1h33c0.6,0,1,0.4,1,1S15.6,49,15,49z"/>
		</g>
		<g>
			<path class="st0" d="M15,57h-33c-0.6,0-1-0.4-1-1s0.4-1,1-1h33c0.6,0,1,0.4,1,1S15.6,57,15,57z"/>
		</g>
		<g>
			<path class="st0" d="M15,65h-33c-0.6,0-1-0.4-1-1s0.4-1,1-1h33c0.6,0,1,0.4,1,1S15.6,65,15,65z"/>
		</g>
		<g>
			<rect x="-9" y="36" class="st0" width="2" height="4"/>
		</g>
		<g>
			<rect x="5" y="36" class="st0" width="2" height="4"/>
		</g>
		<g>
			<rect x="-8" y="35" class="st0" width="14" height="2"/>
		</g>
	</g>
</g>
</svg>
