<?xml version="1.0" encoding="utf-8"?>
<!-- Generator: Adobe Illustrator 19.1.0, SVG Export Plug-In . SVG Version: 6.00 Build 0)  -->
<svg version="1.1" id="Layer_1" xmlns="http://www.w3.org/2000/svg" xmlns:xlink="http://www.w3.org/1999/xlink" x="0px" y="0px"
	 viewBox="-33 35 32 32" style="enable-background:new -33 35 32 32;" xml:space="preserve">
<style type="text/css">
	.st0{fill:none;stroke:#000;stroke-width:2;stroke-linecap:round;stroke-linejoin:round;stroke-miterlimit:10;}
	.st1{fill:#000;}
</style>
<g>
	<polyline class="st0" points="616,173 642,173 642,191 628,191 	"/>
	<polyline class="st0" points="620,191 616,191 616,177 	"/>
	<polyline class="st0" points="628,191 620,197 620,191 	"/>
</g>
<g>
	<g>
		<path class="st1" d="M-17,62c-0.2,0-0.5-0.1-0.6-0.2c-0.2-0.2-5.9-5.1-8.3-10.4c-0.2-0.5,0-1.1,0.5-1.3c0.5-0.2,1.1,0,1.3,0.5
			c1.7,3.9,5.6,7.7,7.1,9.1c2.7-2.7,8-8.6,8-12.4c0-4.5-3.6-8.2-8-8.2s-8,3.7-8,8.2c0,0.6-0.4,1-1,1s-1-0.4-1-1
			c0-5.6,4.5-10.2,10-10.2s10,4.6,10,10.2c0,5.9-8.9,14.2-9.3,14.5C-16.5,61.9-16.8,62-17,62z"/>
	</g>
	<g>
		<path class="st1" d="M-17,51c-2.2,0-4-1.8-4-4s1.8-4,4-4s4,1.8,4,4S-14.8,51-17,51z M-17,45c-1.1,0-2,0.9-2,2s0.9,2,2,2s2-0.9,2-2
			S-15.9,45-17,45z"/>
	</g>
	<g>
		<path class="st1" d="M-4,65h-26c-0.4,0-0.7-0.2-0.9-0.5c-0.2-0.3-0.2-0.7,0-1l4-7c0.3-0.5,0.9-0.6,1.4-0.4
			c0.5,0.3,0.6,0.9,0.4,1.4l-3.1,5.5h22.6l-3.1-5.5C-9.1,57-9,56.4-8.5,56.1c0.5-0.3,1.1-0.1,1.4,0.4l4,7c0.2,0.3,0.2,0.7,0,1
			C-3.3,64.8-3.6,65-4,65z"/>
	</g>
</g>
</svg>
