<?xml version="1.0" encoding="utf-8"?>
<!-- Generator: Adobe Illustrator 19.1.0, SVG Export Plug-In . SVG Version: 6.00 Build 0)  -->
<svg version="1.1" id="Layer_1" xmlns="http://www.w3.org/2000/svg" xmlns:xlink="http://www.w3.org/1999/xlink" x="0px" y="0px"
	 viewBox="-25 27 48 48" style="enable-background:new -25 27 48 48;" xml:space="preserve">
<style type="text/css">
	.st0{fill:#A4C0FC;}
</style>
<g id="Expanded">
	<g>
		<g>
			<rect x="-16" y="49" class="st0" width="3" height="2"/>
		</g>
		<g>
			<path class="st0" d="M-13,47h-9.2c-1.6,0-2.8-1.3-2.8-3V30c0-1.7,1.3-3,2.8-3h20.3c1.6,0,2.8,1.3,2.8,3v12h-2V30
				c0-0.6-0.4-1-0.8-1h-20.3c-0.5,0-0.8,0.4-0.8,1v14c0,0.6,0.4,1,0.8,1h9.2V47z"/>
		</g>
		<g>
			<path class="st0" d="M-16,51h-4c-0.6,0-1-0.4-1-1s0.4-1,1-1h4c0.6,0,1,0.4,1,1S-15.4,51-16,51z"/>
		</g>
		<g>
			<rect x="-25" y="41" class="st0" width="26" height="2"/>
		</g>
		<g>
			<path class="st0" d="M6,75c-0.6,0-1-0.4-1-1v-4c0-0.6,0.4-1,1-1s1,0.4,1,1v4C7,74.6,6.6,75,6,75z"/>
		</g>
		<g>
			<path class="st0" d="M14.6,75H-3c-0.6,0-1-0.4-1-1s0.4-1,1-1h17.6c0.6,0,1,0.4,1,1S15.2,75,14.6,75z"/>
		</g>
		<g>
			<path class="st0" d="M18.8,71H-6.8c-2.3,0-4.2-2.1-4.2-4.6V49.6c0-2.5,1.9-4.6,4.2-4.6h25.6c2.3,0,4.2,2.1,4.2,4.6v16.8
				C23,68.9,21.1,71,18.8,71z M-6.8,47C-8,47-9,48.2-9,49.6v16.8c0,1.4,1,2.6,2.2,2.6h25.6c1.2,0,2.2-1.2,2.2-2.6V49.6
				c0-1.4-1-2.6-2.2-2.6H-6.8z"/>
		</g>
		<g>
			<path class="st0" d="M22,65h-32c-0.6,0-1-0.4-1-1c0-0.6,0.4-1,1-1h32c0.6,0,1,0.4,1,1C23,64.6,22.6,65,22,65z"/>
		</g>
		<g>
			<path class="st0" d="M6,66c-0.6,0-1,0.4-1,1c0,0.6,0.4,1,1,1c0.6,0,1-0.4,1-1C7,66.4,6.6,66,6,66L6,66z"/>
		</g>
	</g>
</g>
</svg>
