<?xml version="1.0" encoding="utf-8"?>
<!-- Generator: Adobe Illustrator 19.1.0, SVG Export Plug-In . SVG Version: 6.00 Build 0)  -->
<svg version="1.1" id="Layer_1" xmlns="http://www.w3.org/2000/svg" xmlns:xlink="http://www.w3.org/1999/xlink" x="0px" y="0px"
	 viewBox="0 0 551.5 443" style="enable-background:new 0 0 551.5 443;" xml:space="preserve">
<style type="text/css">
	.st0{fill:#FFFFFF;}
</style>
<g>
	<path class="st0" d="M484.3-241.5H0.9L-1.7,821h553.1V-316.3L484.3-241.5z M114.5,305.3c-22.7,29.5-52.3,46.8-89,51.8
		c-36.7,4.8-69.8-4.1-99.1-26.6c-26.3-20.2-43-46.9-50.3-80.1c-8.8-40.8-0.1-78.2,26-112.1c14.3-18.5,33-32.6,56.4-42.2l36.8,28.3
		c-28.9,6.4-50.8,19.3-65.6,38.5c-16.3,21.2-22.4,44.9-18.4,71.2c3.9,26.3,16.8,47.8,38.8,64.7c21.7,16.7,45.6,23.4,71.7,20.2
		c26.1-3.2,47.3-15.4,63.6-36.6c8.4-11,13.8-21.6,16.1-32.1c1.5-5.6,2.5-11.9,3-18.8c0.5-6.9,0.6-14.6,0.2-22.9l37.6,28.9
		C138.9,263.1,129.6,285.7,114.5,305.3z M103.9,183.4L-111.9,17.5l25-32.6l184.7,142L192.4,4l31.2,24l-96.8,125.8l-0.1,0
		L103.9,183.4z M321.3,349.6L286.7,324l15.7-67.1l-89.5-66.4l-61,33.5l-34-25.2L386.3,53.3L321.3,349.6z M514.7,393.9
		c-16.3,22-36.7,35.1-61,39.2c-27.2,4.4-52.1-1.7-74.6-18.3c-22.5-16.7-35.5-38.7-39.1-65.9c-3.2-24.4,3.4-47.7,19.8-69.7
		l99.9-134.6l31.6,23.4L398,293.7c-13.3,18-20.1,33.3-20.4,45.9c-0.1,18.5,7.7,33.6,23.6,45.4c16,11.9,32.8,15,50.5,9.5
		c11.8-3.7,24.5-14.6,38-32.9L583,235.9l31.6,23.4L514.7,393.9z"/>
</g>
</svg>
